<mxfile host="app.diagrams.net" modified="2023-02-04T08:52:53.404Z" agent="5.0 (Macintosh; Intel Mac OS X 10_15_7) AppleWebKit/605.1.15 (KHTML, like Gecko) Version/16.1 Safari/605.1.15" etag="qDOTKM7f2FEPzdWTwXdy" version="20.8.16" type="github">
  <diagram name="Page-1" id="4RiBF4p74DhOOl9Dp6OF">
    <mxGraphModel dx="1122" dy="761" grid="0" gridSize="10" guides="1" tooltips="1" connect="1" arrows="1" fold="1" page="0" pageScale="1" pageWidth="850" pageHeight="1100" math="0" shadow="0">
      <root>
        <mxCell id="0" />
        <mxCell id="1" parent="0" />
        <mxCell id="028M3EtKcu_b-tOw9vi7-4" value="" style="rounded=0;whiteSpace=wrap;html=1;fillColor=#ffe6cc;strokeColor=#d79b00;" parent="1" vertex="1">
          <mxGeometry x="520" y="230" width="180" height="240" as="geometry" />
        </mxCell>
        <mxCell id="028M3EtKcu_b-tOw9vi7-3" value="&lt;font style=&quot;font-size: 24px;&quot;&gt;矩阵A&lt;/font&gt;" style="text;html=1;strokeColor=none;fillColor=none;align=center;verticalAlign=middle;whiteSpace=wrap;rounded=0;" parent="1" vertex="1">
          <mxGeometry x="240" y="190" width="80" height="30" as="geometry" />
        </mxCell>
        <mxCell id="028M3EtKcu_b-tOw9vi7-5" value="" style="rounded=0;whiteSpace=wrap;html=1;fillColor=#ffe6cc;strokeColor=#000000;gradientColor=#DAE8FC;gradientDirection=north;" parent="1" vertex="1">
          <mxGeometry x="840" y="230" width="180" height="160" as="geometry" />
        </mxCell>
        <mxCell id="028M3EtKcu_b-tOw9vi7-6" value="&lt;font size=&quot;5&quot;&gt;矩阵B&lt;/font&gt;" style="text;html=1;strokeColor=none;fillColor=none;align=center;verticalAlign=middle;whiteSpace=wrap;rounded=0;" parent="1" vertex="1">
          <mxGeometry x="570" y="190" width="80" height="30" as="geometry" />
        </mxCell>
        <mxCell id="028M3EtKcu_b-tOw9vi7-7" value="&lt;font size=&quot;5&quot;&gt;矩阵C&lt;/font&gt;" style="text;html=1;strokeColor=none;fillColor=none;align=center;verticalAlign=middle;whiteSpace=wrap;rounded=0;" parent="1" vertex="1">
          <mxGeometry x="890" y="190" width="80" height="30" as="geometry" />
        </mxCell>
        <mxCell id="028M3EtKcu_b-tOw9vi7-9" value="" style="endArrow=classic;startArrow=classic;html=1;rounded=0;fontSize=16;" parent="1" edge="1">
          <mxGeometry width="50" height="50" relative="1" as="geometry">
            <mxPoint x="150" y="390" as="sourcePoint" />
            <mxPoint x="150" y="230" as="targetPoint" />
          </mxGeometry>
        </mxCell>
        <mxCell id="028M3EtKcu_b-tOw9vi7-14" value="a" style="edgeLabel;html=1;align=center;verticalAlign=middle;resizable=0;points=[];fontSize=16;" parent="028M3EtKcu_b-tOw9vi7-9" vertex="1" connectable="0">
          <mxGeometry x="0.019" relative="1" as="geometry">
            <mxPoint as="offset" />
          </mxGeometry>
        </mxCell>
        <mxCell id="028M3EtKcu_b-tOw9vi7-15" value="" style="endArrow=classic;startArrow=classic;html=1;rounded=0;fontSize=16;" parent="1" edge="1">
          <mxGeometry width="50" height="50" relative="1" as="geometry">
            <mxPoint x="510" y="470" as="sourcePoint" />
            <mxPoint x="510" y="230" as="targetPoint" />
            <Array as="points" />
          </mxGeometry>
        </mxCell>
        <mxCell id="028M3EtKcu_b-tOw9vi7-16" value="b" style="edgeLabel;html=1;align=center;verticalAlign=middle;resizable=0;points=[];fontSize=16;" parent="028M3EtKcu_b-tOw9vi7-15" vertex="1" connectable="0">
          <mxGeometry x="0.019" relative="1" as="geometry">
            <mxPoint as="offset" />
          </mxGeometry>
        </mxCell>
        <mxCell id="028M3EtKcu_b-tOw9vi7-19" value="" style="endArrow=classic;startArrow=classic;html=1;rounded=0;fontSize=16;" parent="1" edge="1">
          <mxGeometry width="50" height="50" relative="1" as="geometry">
            <mxPoint x="830" y="390" as="sourcePoint" />
            <mxPoint x="830" y="230" as="targetPoint" />
          </mxGeometry>
        </mxCell>
        <mxCell id="028M3EtKcu_b-tOw9vi7-20" value="a" style="edgeLabel;html=1;align=center;verticalAlign=middle;resizable=0;points=[];fontSize=16;" parent="028M3EtKcu_b-tOw9vi7-19" vertex="1" connectable="0">
          <mxGeometry x="0.019" relative="1" as="geometry">
            <mxPoint as="offset" />
          </mxGeometry>
        </mxCell>
        <mxCell id="028M3EtKcu_b-tOw9vi7-21" value="" style="endArrow=classic;startArrow=classic;html=1;rounded=0;fontSize=16;" parent="1" edge="1">
          <mxGeometry width="50" height="50" relative="1" as="geometry">
            <mxPoint x="160" y="400" as="sourcePoint" />
            <mxPoint x="400" y="400" as="targetPoint" />
          </mxGeometry>
        </mxCell>
        <mxCell id="028M3EtKcu_b-tOw9vi7-22" value="b" style="edgeLabel;html=1;align=center;verticalAlign=middle;resizable=0;points=[];fontSize=16;" parent="028M3EtKcu_b-tOw9vi7-21" vertex="1" connectable="0">
          <mxGeometry x="0.019" relative="1" as="geometry">
            <mxPoint as="offset" />
          </mxGeometry>
        </mxCell>
        <mxCell id="028M3EtKcu_b-tOw9vi7-23" value="" style="endArrow=classic;startArrow=classic;html=1;rounded=0;fontSize=16;" parent="1" edge="1">
          <mxGeometry width="50" height="50" relative="1" as="geometry">
            <mxPoint x="520" y="480" as="sourcePoint" />
            <mxPoint x="700" y="480" as="targetPoint" />
          </mxGeometry>
        </mxCell>
        <mxCell id="028M3EtKcu_b-tOw9vi7-24" value="c" style="edgeLabel;html=1;align=center;verticalAlign=middle;resizable=0;points=[];fontSize=16;" parent="028M3EtKcu_b-tOw9vi7-23" vertex="1" connectable="0">
          <mxGeometry x="0.019" relative="1" as="geometry">
            <mxPoint as="offset" />
          </mxGeometry>
        </mxCell>
        <mxCell id="028M3EtKcu_b-tOw9vi7-25" value="" style="endArrow=classic;startArrow=classic;html=1;rounded=0;fontSize=16;" parent="1" edge="1">
          <mxGeometry width="50" height="50" relative="1" as="geometry">
            <mxPoint x="840" y="400.0000000000001" as="sourcePoint" />
            <mxPoint x="1020" y="400.0000000000001" as="targetPoint" />
          </mxGeometry>
        </mxCell>
        <mxCell id="028M3EtKcu_b-tOw9vi7-26" value="c" style="edgeLabel;html=1;align=center;verticalAlign=middle;resizable=0;points=[];fontSize=16;" parent="028M3EtKcu_b-tOw9vi7-25" vertex="1" connectable="0">
          <mxGeometry x="0.019" relative="1" as="geometry">
            <mxPoint as="offset" />
          </mxGeometry>
        </mxCell>
        <mxCell id="028M3EtKcu_b-tOw9vi7-27" value="" style="rounded=0;whiteSpace=wrap;html=1;fontSize=16;fillColor=#dae8fc;strokeColor=#6c8ebf;" parent="1" vertex="1">
          <mxGeometry x="160" y="230" width="240" height="20" as="geometry" />
        </mxCell>
        <mxCell id="028M3EtKcu_b-tOw9vi7-1" value="" style="rounded=0;whiteSpace=wrap;html=1;fillColor=#dae8fc;strokeColor=#6c8ebf;" parent="1" vertex="1">
          <mxGeometry x="160" y="230" width="240" height="160" as="geometry" />
        </mxCell>
        <mxCell id="028M3EtKcu_b-tOw9vi7-32" value="" style="verticalLabelPosition=bottom;verticalAlign=top;html=1;shape=mxgraph.basic.x;strokeColor=#11053b;fontSize=16;fillColor=#000000;gradientColor=none;gradientDirection=north;" parent="1" vertex="1">
          <mxGeometry x="440" y="300" width="20" height="20" as="geometry" />
        </mxCell>
        <mxCell id="028M3EtKcu_b-tOw9vi7-33" value="" style="rounded=0;whiteSpace=wrap;html=1;fillColor=#ffe6cc;strokeColor=#d79b00;" parent="1" vertex="1">
          <mxGeometry x="470" y="600" width="240" height="180" as="geometry" />
        </mxCell>
        <mxCell id="028M3EtKcu_b-tOw9vi7-35" value="&lt;font style=&quot;font-size: 24px;&quot;&gt;矩阵C&lt;/font&gt;" style="text;html=1;strokeColor=none;fillColor=none;align=center;verticalAlign=middle;whiteSpace=wrap;rounded=0;" parent="1" vertex="1">
          <mxGeometry x="205" y="570" width="80" height="30" as="geometry" />
        </mxCell>
        <mxCell id="028M3EtKcu_b-tOw9vi7-36" value="" style="rounded=0;whiteSpace=wrap;html=1;fillColor=#ffe6cc;strokeColor=#000000;gradientColor=#DAE8FC;gradientDirection=north;" parent="1" vertex="1">
          <mxGeometry x="805" y="610" width="240" height="160" as="geometry" />
        </mxCell>
        <mxCell id="028M3EtKcu_b-tOw9vi7-37" value="&lt;font size=&quot;5&quot;&gt;矩阵D&lt;/font&gt;" style="text;html=1;strokeColor=none;fillColor=none;align=center;verticalAlign=middle;whiteSpace=wrap;rounded=0;" parent="1" vertex="1">
          <mxGeometry x="550" y="560" width="80" height="30" as="geometry" />
        </mxCell>
        <mxCell id="028M3EtKcu_b-tOw9vi7-38" value="&lt;font size=&quot;5&quot;&gt;矩阵E&lt;/font&gt;" style="text;html=1;strokeColor=none;fillColor=none;align=center;verticalAlign=middle;whiteSpace=wrap;rounded=0;" parent="1" vertex="1">
          <mxGeometry x="885" y="570" width="80" height="30" as="geometry" />
        </mxCell>
        <mxCell id="028M3EtKcu_b-tOw9vi7-41" value="" style="endArrow=classic;startArrow=classic;html=1;rounded=0;fontSize=16;" parent="1" edge="1">
          <mxGeometry width="50" height="50" relative="1" as="geometry">
            <mxPoint x="460" y="780" as="sourcePoint" />
            <mxPoint x="460" y="600" as="targetPoint" />
            <Array as="points" />
          </mxGeometry>
        </mxCell>
        <mxCell id="028M3EtKcu_b-tOw9vi7-42" value="c" style="edgeLabel;html=1;align=center;verticalAlign=middle;resizable=0;points=[];fontSize=16;" parent="028M3EtKcu_b-tOw9vi7-41" vertex="1" connectable="0">
          <mxGeometry x="0.019" relative="1" as="geometry">
            <mxPoint as="offset" />
          </mxGeometry>
        </mxCell>
        <mxCell id="028M3EtKcu_b-tOw9vi7-43" value="" style="endArrow=classic;startArrow=classic;html=1;rounded=0;fontSize=16;" parent="1" edge="1">
          <mxGeometry width="50" height="50" relative="1" as="geometry">
            <mxPoint x="795" y="770" as="sourcePoint" />
            <mxPoint x="795" y="610" as="targetPoint" />
          </mxGeometry>
        </mxCell>
        <mxCell id="028M3EtKcu_b-tOw9vi7-44" value="a" style="edgeLabel;html=1;align=center;verticalAlign=middle;resizable=0;points=[];fontSize=16;" parent="028M3EtKcu_b-tOw9vi7-43" vertex="1" connectable="0">
          <mxGeometry x="0.019" relative="1" as="geometry">
            <mxPoint as="offset" />
          </mxGeometry>
        </mxCell>
        <mxCell id="028M3EtKcu_b-tOw9vi7-47" value="" style="endArrow=classic;startArrow=classic;html=1;rounded=0;fontSize=16;" parent="1" edge="1">
          <mxGeometry width="50" height="50" relative="1" as="geometry">
            <mxPoint x="467.5" y="790" as="sourcePoint" />
            <mxPoint x="712.5" y="790" as="targetPoint" />
          </mxGeometry>
        </mxCell>
        <mxCell id="028M3EtKcu_b-tOw9vi7-48" value="d" style="edgeLabel;html=1;align=center;verticalAlign=middle;resizable=0;points=[];fontSize=16;" parent="028M3EtKcu_b-tOw9vi7-47" vertex="1" connectable="0">
          <mxGeometry x="0.019" relative="1" as="geometry">
            <mxPoint as="offset" />
          </mxGeometry>
        </mxCell>
        <mxCell id="028M3EtKcu_b-tOw9vi7-54" value="" style="verticalLabelPosition=bottom;verticalAlign=top;html=1;shape=mxgraph.basic.x;strokeColor=#11053b;fontSize=16;fillColor=#000000;gradientColor=none;gradientDirection=north;" parent="1" vertex="1">
          <mxGeometry x="390" y="680" width="20" height="20" as="geometry" />
        </mxCell>
        <mxCell id="028M3EtKcu_b-tOw9vi7-55" value="" style="rounded=0;whiteSpace=wrap;html=1;fillColor=#dae8fc;strokeColor=#6c8ebf;" parent="1" vertex="1">
          <mxGeometry x="160" y="610" width="180" height="160" as="geometry" />
        </mxCell>
        <mxCell id="028M3EtKcu_b-tOw9vi7-56" value="" style="endArrow=classic;startArrow=classic;html=1;rounded=0;fontSize=16;" parent="1" edge="1">
          <mxGeometry width="50" height="50" relative="1" as="geometry">
            <mxPoint x="150" y="770" as="sourcePoint" />
            <mxPoint x="150" y="610" as="targetPoint" />
          </mxGeometry>
        </mxCell>
        <mxCell id="028M3EtKcu_b-tOw9vi7-57" value="a" style="edgeLabel;html=1;align=center;verticalAlign=middle;resizable=0;points=[];fontSize=16;" parent="028M3EtKcu_b-tOw9vi7-56" vertex="1" connectable="0">
          <mxGeometry x="0.019" relative="1" as="geometry">
            <mxPoint as="offset" />
          </mxGeometry>
        </mxCell>
        <mxCell id="028M3EtKcu_b-tOw9vi7-58" value="" style="endArrow=classic;startArrow=classic;html=1;rounded=0;fontSize=16;" parent="1" edge="1">
          <mxGeometry width="50" height="50" relative="1" as="geometry">
            <mxPoint x="160" y="780" as="sourcePoint" />
            <mxPoint x="340" y="780" as="targetPoint" />
          </mxGeometry>
        </mxCell>
        <mxCell id="028M3EtKcu_b-tOw9vi7-59" value="c" style="edgeLabel;html=1;align=center;verticalAlign=middle;resizable=0;points=[];fontSize=16;" parent="028M3EtKcu_b-tOw9vi7-58" vertex="1" connectable="0">
          <mxGeometry x="0.019" relative="1" as="geometry">
            <mxPoint as="offset" />
          </mxGeometry>
        </mxCell>
        <mxCell id="028M3EtKcu_b-tOw9vi7-62" value="" style="endArrow=classic;startArrow=classic;html=1;rounded=0;fontSize=16;" parent="1" edge="1">
          <mxGeometry width="50" height="50" relative="1" as="geometry">
            <mxPoint x="805" y="790" as="sourcePoint" />
            <mxPoint x="1050" y="790" as="targetPoint" />
          </mxGeometry>
        </mxCell>
        <mxCell id="028M3EtKcu_b-tOw9vi7-63" value="d" style="edgeLabel;html=1;align=center;verticalAlign=middle;resizable=0;points=[];fontSize=16;" parent="028M3EtKcu_b-tOw9vi7-62" vertex="1" connectable="0">
          <mxGeometry x="0.019" relative="1" as="geometry">
            <mxPoint as="offset" />
          </mxGeometry>
        </mxCell>
        <mxCell id="028M3EtKcu_b-tOw9vi7-70" value="" style="group" parent="1" vertex="1" connectable="0">
          <mxGeometry x="750" y="300" width="30" height="10" as="geometry" />
        </mxCell>
        <mxCell id="028M3EtKcu_b-tOw9vi7-66" value="" style="endArrow=none;html=1;rounded=0;fontSize=16;strokeWidth=6;" parent="028M3EtKcu_b-tOw9vi7-70" edge="1">
          <mxGeometry width="50" height="50" relative="1" as="geometry">
            <mxPoint as="sourcePoint" />
            <mxPoint x="30" as="targetPoint" />
          </mxGeometry>
        </mxCell>
        <mxCell id="028M3EtKcu_b-tOw9vi7-69" value="" style="endArrow=none;html=1;rounded=0;fontSize=16;strokeWidth=6;" parent="028M3EtKcu_b-tOw9vi7-70" edge="1">
          <mxGeometry width="50" height="50" relative="1" as="geometry">
            <mxPoint y="10" as="sourcePoint" />
            <mxPoint x="30" y="10" as="targetPoint" />
          </mxGeometry>
        </mxCell>
        <mxCell id="028M3EtKcu_b-tOw9vi7-71" value="" style="group" parent="1" vertex="1" connectable="0">
          <mxGeometry x="730" y="680" width="30" height="10" as="geometry" />
        </mxCell>
        <mxCell id="028M3EtKcu_b-tOw9vi7-72" value="" style="endArrow=none;html=1;rounded=0;fontSize=16;strokeWidth=6;" parent="028M3EtKcu_b-tOw9vi7-71" edge="1">
          <mxGeometry width="50" height="50" relative="1" as="geometry">
            <mxPoint as="sourcePoint" />
            <mxPoint x="30" as="targetPoint" />
          </mxGeometry>
        </mxCell>
        <mxCell id="028M3EtKcu_b-tOw9vi7-73" value="" style="endArrow=none;html=1;rounded=0;fontSize=16;strokeWidth=6;" parent="028M3EtKcu_b-tOw9vi7-71" edge="1">
          <mxGeometry width="50" height="50" relative="1" as="geometry">
            <mxPoint y="10" as="sourcePoint" />
            <mxPoint x="30" y="10" as="targetPoint" />
          </mxGeometry>
        </mxCell>
        <mxCell id="028M3EtKcu_b-tOw9vi7-74" value="&lt;font size=&quot;5&quot;&gt;&lt;b&gt;GEMM1&lt;/b&gt;&lt;/font&gt;" style="text;html=1;strokeColor=none;fillColor=none;align=center;verticalAlign=middle;whiteSpace=wrap;rounded=0;" parent="1" vertex="1">
          <mxGeometry x="570" y="150" width="80" height="30" as="geometry" />
        </mxCell>
        <mxCell id="028M3EtKcu_b-tOw9vi7-76" value="&lt;font size=&quot;5&quot;&gt;&lt;b&gt;GEMM2&lt;br&gt;&lt;/b&gt;&lt;/font&gt;" style="text;html=1;strokeColor=none;fillColor=none;align=center;verticalAlign=middle;whiteSpace=wrap;rounded=0;" parent="1" vertex="1">
          <mxGeometry x="550" y="520" width="80" height="30" as="geometry" />
        </mxCell>
        <mxCell id="028M3EtKcu_b-tOw9vi7-78" value="" style="rounded=0;whiteSpace=wrap;html=1;fillColor=#ffe6cc;strokeColor=#d79b00;" parent="1" vertex="1">
          <mxGeometry x="1360" y="210" width="180" height="240" as="geometry" />
        </mxCell>
        <mxCell id="028M3EtKcu_b-tOw9vi7-79" value="" style="endArrow=classic;startArrow=classic;html=1;rounded=0;fontSize=16;" parent="1" edge="1">
          <mxGeometry width="50" height="50" relative="1" as="geometry">
            <mxPoint x="1350" y="450" as="sourcePoint" />
            <mxPoint x="1350" y="210" as="targetPoint" />
            <Array as="points" />
          </mxGeometry>
        </mxCell>
        <mxCell id="028M3EtKcu_b-tOw9vi7-80" value="b" style="edgeLabel;html=1;align=center;verticalAlign=middle;resizable=0;points=[];fontSize=16;" parent="028M3EtKcu_b-tOw9vi7-79" vertex="1" connectable="0">
          <mxGeometry x="0.019" relative="1" as="geometry">
            <mxPoint as="offset" />
          </mxGeometry>
        </mxCell>
        <mxCell id="028M3EtKcu_b-tOw9vi7-81" value="" style="endArrow=classic;startArrow=classic;html=1;rounded=0;fontSize=16;" parent="1" edge="1">
          <mxGeometry width="50" height="50" relative="1" as="geometry">
            <mxPoint x="1360" y="460" as="sourcePoint" />
            <mxPoint x="1540" y="460" as="targetPoint" />
          </mxGeometry>
        </mxCell>
        <mxCell id="028M3EtKcu_b-tOw9vi7-82" value="c" style="edgeLabel;html=1;align=center;verticalAlign=middle;resizable=0;points=[];fontSize=16;" parent="028M3EtKcu_b-tOw9vi7-81" vertex="1" connectable="0">
          <mxGeometry x="0.019" relative="1" as="geometry">
            <mxPoint as="offset" />
          </mxGeometry>
        </mxCell>
        <mxCell id="028M3EtKcu_b-tOw9vi7-83" value="&lt;font size=&quot;5&quot;&gt;矩阵B&lt;/font&gt;" style="text;html=1;strokeColor=none;fillColor=none;align=center;verticalAlign=middle;whiteSpace=wrap;rounded=0;" parent="1" vertex="1">
          <mxGeometry x="1410" y="180" width="80" height="30" as="geometry" />
        </mxCell>
        <mxCell id="028M3EtKcu_b-tOw9vi7-84" value="" style="rounded=0;whiteSpace=wrap;html=1;fillColor=#ffe6cc;strokeColor=#d79b00;" parent="1" vertex="1">
          <mxGeometry x="1617" y="210.00000000000003" width="240" height="180" as="geometry" />
        </mxCell>
        <mxCell id="028M3EtKcu_b-tOw9vi7-85" value="&lt;font size=&quot;5&quot;&gt;矩阵D&lt;/font&gt;" style="text;html=1;strokeColor=none;fillColor=none;align=center;verticalAlign=middle;whiteSpace=wrap;rounded=0;" parent="1" vertex="1">
          <mxGeometry x="1697" y="170.00000000000003" width="80" height="30" as="geometry" />
        </mxCell>
        <mxCell id="028M3EtKcu_b-tOw9vi7-86" value="" style="endArrow=classic;startArrow=classic;html=1;rounded=0;fontSize=16;" parent="1" edge="1">
          <mxGeometry width="50" height="50" relative="1" as="geometry">
            <mxPoint x="1607" y="390" as="sourcePoint" />
            <mxPoint x="1607" y="210.00000000000003" as="targetPoint" />
            <Array as="points" />
          </mxGeometry>
        </mxCell>
        <mxCell id="028M3EtKcu_b-tOw9vi7-87" value="c" style="edgeLabel;html=1;align=center;verticalAlign=middle;resizable=0;points=[];fontSize=16;" parent="028M3EtKcu_b-tOw9vi7-86" vertex="1" connectable="0">
          <mxGeometry x="0.019" relative="1" as="geometry">
            <mxPoint as="offset" />
          </mxGeometry>
        </mxCell>
        <mxCell id="028M3EtKcu_b-tOw9vi7-88" value="" style="endArrow=classic;startArrow=classic;html=1;rounded=0;fontSize=16;" parent="1" edge="1">
          <mxGeometry width="50" height="50" relative="1" as="geometry">
            <mxPoint x="1614.5" y="400" as="sourcePoint" />
            <mxPoint x="1859.5" y="400" as="targetPoint" />
          </mxGeometry>
        </mxCell>
        <mxCell id="028M3EtKcu_b-tOw9vi7-89" value="d" style="edgeLabel;html=1;align=center;verticalAlign=middle;resizable=0;points=[];fontSize=16;" parent="028M3EtKcu_b-tOw9vi7-88" vertex="1" connectable="0">
          <mxGeometry x="0.019" relative="1" as="geometry">
            <mxPoint as="offset" />
          </mxGeometry>
        </mxCell>
        <mxCell id="028M3EtKcu_b-tOw9vi7-90" value="" style="verticalLabelPosition=bottom;verticalAlign=top;html=1;shape=mxgraph.basic.x;strokeColor=#11053b;fontSize=16;fillColor=#000000;gradientColor=none;gradientDirection=north;" parent="1" vertex="1">
          <mxGeometry x="1569" y="306" width="20" height="20" as="geometry" />
        </mxCell>
        <mxCell id="028M3EtKcu_b-tOw9vi7-91" value="" style="rounded=0;whiteSpace=wrap;html=1;strokeColor=#6c8ebf;fontSize=16;fillColor=#dae8fc;gradientDirection=north;" parent="1" vertex="1">
          <mxGeometry x="160" y="840" width="30" height="30" as="geometry" />
        </mxCell>
        <mxCell id="028M3EtKcu_b-tOw9vi7-92" value="代表输入矩阵" style="text;html=1;strokeColor=none;fillColor=none;align=center;verticalAlign=middle;whiteSpace=wrap;rounded=0;fontSize=16;" parent="1" vertex="1">
          <mxGeometry x="210" y="840" width="100" height="30" as="geometry" />
        </mxCell>
        <mxCell id="028M3EtKcu_b-tOw9vi7-93" value="" style="rounded=0;whiteSpace=wrap;html=1;strokeColor=#d79b00;fontSize=16;fillColor=#ffe6cc;gradientDirection=north;" parent="1" vertex="1">
          <mxGeometry x="520" y="840" width="30" height="30" as="geometry" />
        </mxCell>
        <mxCell id="028M3EtKcu_b-tOw9vi7-94" value="代表离线计算&lt;br&gt;的系数矩阵" style="text;html=1;strokeColor=none;fillColor=none;align=center;verticalAlign=middle;whiteSpace=wrap;rounded=0;fontSize=16;" parent="1" vertex="1">
          <mxGeometry x="570" y="840" width="120" height="30" as="geometry" />
        </mxCell>
        <mxCell id="028M3EtKcu_b-tOw9vi7-95" value="" style="rounded=0;whiteSpace=wrap;html=1;fillColor=#ffe6cc;strokeColor=#000000;gradientColor=#DAE8FC;gradientDirection=north;" parent="1" vertex="1">
          <mxGeometry x="860" y="840" width="30" height="30" as="geometry" />
        </mxCell>
        <mxCell id="028M3EtKcu_b-tOw9vi7-96" value="代表计算输出矩阵" style="text;html=1;strokeColor=none;fillColor=none;align=center;verticalAlign=middle;whiteSpace=wrap;rounded=0;fontSize=16;" parent="1" vertex="1">
          <mxGeometry x="890" y="840" width="140" height="30" as="geometry" />
        </mxCell>
        <mxCell id="028M3EtKcu_b-tOw9vi7-97" value="" style="rounded=0;whiteSpace=wrap;html=1;fillColor=#ffe6cc;strokeColor=#d79b00;" parent="1" vertex="1">
          <mxGeometry x="1969" y="205.00000000000003" width="240" height="240" as="geometry" />
        </mxCell>
        <mxCell id="028M3EtKcu_b-tOw9vi7-98" value="" style="group" parent="1" vertex="1" connectable="0">
          <mxGeometry x="1898" y="293" width="30" height="10" as="geometry" />
        </mxCell>
        <mxCell id="028M3EtKcu_b-tOw9vi7-99" value="" style="endArrow=none;html=1;rounded=0;fontSize=16;strokeWidth=6;" parent="028M3EtKcu_b-tOw9vi7-98" edge="1">
          <mxGeometry width="50" height="50" relative="1" as="geometry">
            <mxPoint as="sourcePoint" />
            <mxPoint x="30" as="targetPoint" />
          </mxGeometry>
        </mxCell>
        <mxCell id="028M3EtKcu_b-tOw9vi7-100" value="" style="endArrow=none;html=1;rounded=0;fontSize=16;strokeWidth=6;" parent="028M3EtKcu_b-tOw9vi7-98" edge="1">
          <mxGeometry width="50" height="50" relative="1" as="geometry">
            <mxPoint y="10" as="sourcePoint" />
            <mxPoint x="30" y="10" as="targetPoint" />
          </mxGeometry>
        </mxCell>
        <mxCell id="028M3EtKcu_b-tOw9vi7-101" value="&lt;font size=&quot;5&quot;&gt;矩阵B&#39;&lt;/font&gt;" style="text;html=1;strokeColor=none;fillColor=none;align=center;verticalAlign=middle;whiteSpace=wrap;rounded=0;" parent="1" vertex="1">
          <mxGeometry x="2049" y="165.00000000000003" width="80" height="30" as="geometry" />
        </mxCell>
        <mxCell id="028M3EtKcu_b-tOw9vi7-123" value="" style="rounded=0;whiteSpace=wrap;html=1;fillColor=#ffe6cc;strokeColor=#d79b00;" parent="1" vertex="1">
          <mxGeometry x="1688" y="574" width="180" height="240" as="geometry" />
        </mxCell>
        <mxCell id="028M3EtKcu_b-tOw9vi7-124" value="&lt;font style=&quot;font-size: 24px;&quot;&gt;矩阵A&lt;/font&gt;" style="text;html=1;strokeColor=none;fillColor=none;align=center;verticalAlign=middle;whiteSpace=wrap;rounded=0;" parent="1" vertex="1">
          <mxGeometry x="1442" y="540" width="80" height="30" as="geometry" />
        </mxCell>
        <mxCell id="028M3EtKcu_b-tOw9vi7-125" value="" style="rounded=0;whiteSpace=wrap;html=1;fillColor=#ffe6cc;strokeColor=#000000;gradientColor=#DAE8FC;gradientDirection=north;" parent="1" vertex="1">
          <mxGeometry x="2008" y="574" width="180" height="160" as="geometry" />
        </mxCell>
        <mxCell id="028M3EtKcu_b-tOw9vi7-126" value="&lt;font size=&quot;5&quot;&gt;矩阵B&#39;&lt;/font&gt;" style="text;html=1;strokeColor=none;fillColor=none;align=center;verticalAlign=middle;whiteSpace=wrap;rounded=0;" parent="1" vertex="1">
          <mxGeometry x="1738" y="534" width="80" height="30" as="geometry" />
        </mxCell>
        <mxCell id="028M3EtKcu_b-tOw9vi7-127" value="&lt;font size=&quot;5&quot;&gt;矩阵E&lt;/font&gt;" style="text;html=1;strokeColor=none;fillColor=none;align=center;verticalAlign=middle;whiteSpace=wrap;rounded=0;" parent="1" vertex="1">
          <mxGeometry x="2058" y="534" width="80" height="30" as="geometry" />
        </mxCell>
        <mxCell id="028M3EtKcu_b-tOw9vi7-128" value="" style="endArrow=classic;startArrow=classic;html=1;rounded=0;fontSize=16;" parent="1" edge="1">
          <mxGeometry width="50" height="50" relative="1" as="geometry">
            <mxPoint x="1352" y="740" as="sourcePoint" />
            <mxPoint x="1352" y="580" as="targetPoint" />
          </mxGeometry>
        </mxCell>
        <mxCell id="028M3EtKcu_b-tOw9vi7-129" value="a" style="edgeLabel;html=1;align=center;verticalAlign=middle;resizable=0;points=[];fontSize=16;" parent="028M3EtKcu_b-tOw9vi7-128" vertex="1" connectable="0">
          <mxGeometry x="0.019" relative="1" as="geometry">
            <mxPoint as="offset" />
          </mxGeometry>
        </mxCell>
        <mxCell id="028M3EtKcu_b-tOw9vi7-130" value="" style="endArrow=classic;startArrow=classic;html=1;rounded=0;fontSize=16;" parent="1" edge="1">
          <mxGeometry width="50" height="50" relative="1" as="geometry">
            <mxPoint x="1678" y="814" as="sourcePoint" />
            <mxPoint x="1678" y="574" as="targetPoint" />
            <Array as="points" />
          </mxGeometry>
        </mxCell>
        <mxCell id="028M3EtKcu_b-tOw9vi7-131" value="b" style="edgeLabel;html=1;align=center;verticalAlign=middle;resizable=0;points=[];fontSize=16;" parent="028M3EtKcu_b-tOw9vi7-130" vertex="1" connectable="0">
          <mxGeometry x="0.019" relative="1" as="geometry">
            <mxPoint as="offset" />
          </mxGeometry>
        </mxCell>
        <mxCell id="028M3EtKcu_b-tOw9vi7-132" value="" style="endArrow=classic;startArrow=classic;html=1;rounded=0;fontSize=16;" parent="1" edge="1">
          <mxGeometry width="50" height="50" relative="1" as="geometry">
            <mxPoint x="1998" y="734" as="sourcePoint" />
            <mxPoint x="1998" y="574" as="targetPoint" />
          </mxGeometry>
        </mxCell>
        <mxCell id="028M3EtKcu_b-tOw9vi7-133" value="a" style="edgeLabel;html=1;align=center;verticalAlign=middle;resizable=0;points=[];fontSize=16;" parent="028M3EtKcu_b-tOw9vi7-132" vertex="1" connectable="0">
          <mxGeometry x="0.019" relative="1" as="geometry">
            <mxPoint as="offset" />
          </mxGeometry>
        </mxCell>
        <mxCell id="028M3EtKcu_b-tOw9vi7-134" value="" style="endArrow=classic;startArrow=classic;html=1;rounded=0;fontSize=16;" parent="1" edge="1">
          <mxGeometry width="50" height="50" relative="1" as="geometry">
            <mxPoint x="1362" y="750" as="sourcePoint" />
            <mxPoint x="1602" y="750" as="targetPoint" />
          </mxGeometry>
        </mxCell>
        <mxCell id="028M3EtKcu_b-tOw9vi7-135" value="b" style="edgeLabel;html=1;align=center;verticalAlign=middle;resizable=0;points=[];fontSize=16;" parent="028M3EtKcu_b-tOw9vi7-134" vertex="1" connectable="0">
          <mxGeometry x="0.019" relative="1" as="geometry">
            <mxPoint as="offset" />
          </mxGeometry>
        </mxCell>
        <mxCell id="028M3EtKcu_b-tOw9vi7-136" value="" style="endArrow=classic;startArrow=classic;html=1;rounded=0;fontSize=16;" parent="1" edge="1">
          <mxGeometry width="50" height="50" relative="1" as="geometry">
            <mxPoint x="1688" y="824" as="sourcePoint" />
            <mxPoint x="1868" y="824" as="targetPoint" />
          </mxGeometry>
        </mxCell>
        <mxCell id="028M3EtKcu_b-tOw9vi7-137" value="c" style="edgeLabel;html=1;align=center;verticalAlign=middle;resizable=0;points=[];fontSize=16;" parent="028M3EtKcu_b-tOw9vi7-136" vertex="1" connectable="0">
          <mxGeometry x="0.019" relative="1" as="geometry">
            <mxPoint as="offset" />
          </mxGeometry>
        </mxCell>
        <mxCell id="028M3EtKcu_b-tOw9vi7-138" value="" style="endArrow=classic;startArrow=classic;html=1;rounded=0;fontSize=16;" parent="1" edge="1">
          <mxGeometry width="50" height="50" relative="1" as="geometry">
            <mxPoint x="2008" y="744" as="sourcePoint" />
            <mxPoint x="2188" y="744" as="targetPoint" />
          </mxGeometry>
        </mxCell>
        <mxCell id="028M3EtKcu_b-tOw9vi7-139" value="c" style="edgeLabel;html=1;align=center;verticalAlign=middle;resizable=0;points=[];fontSize=16;" parent="028M3EtKcu_b-tOw9vi7-138" vertex="1" connectable="0">
          <mxGeometry x="0.019" relative="1" as="geometry">
            <mxPoint as="offset" />
          </mxGeometry>
        </mxCell>
        <mxCell id="028M3EtKcu_b-tOw9vi7-140" value="" style="rounded=0;whiteSpace=wrap;html=1;fontSize=16;fillColor=#dae8fc;strokeColor=#6c8ebf;" parent="1" vertex="1">
          <mxGeometry x="1362" y="580" width="240" height="20" as="geometry" />
        </mxCell>
        <mxCell id="028M3EtKcu_b-tOw9vi7-141" value="" style="rounded=0;whiteSpace=wrap;html=1;fillColor=#dae8fc;strokeColor=#6c8ebf;" parent="1" vertex="1">
          <mxGeometry x="1362" y="580" width="240" height="160" as="geometry" />
        </mxCell>
        <mxCell id="028M3EtKcu_b-tOw9vi7-142" value="" style="verticalLabelPosition=bottom;verticalAlign=top;html=1;shape=mxgraph.basic.x;strokeColor=#11053b;fontSize=16;fillColor=#000000;gradientColor=none;gradientDirection=north;" parent="1" vertex="1">
          <mxGeometry x="1626" y="650" width="20" height="20" as="geometry" />
        </mxCell>
        <mxCell id="028M3EtKcu_b-tOw9vi7-143" value="" style="group" parent="1" vertex="1" connectable="0">
          <mxGeometry x="1918" y="644" width="30" height="10" as="geometry" />
        </mxCell>
        <mxCell id="028M3EtKcu_b-tOw9vi7-144" value="" style="endArrow=none;html=1;rounded=0;fontSize=16;strokeWidth=6;" parent="028M3EtKcu_b-tOw9vi7-143" edge="1">
          <mxGeometry width="50" height="50" relative="1" as="geometry">
            <mxPoint as="sourcePoint" />
            <mxPoint x="30" as="targetPoint" />
          </mxGeometry>
        </mxCell>
        <mxCell id="028M3EtKcu_b-tOw9vi7-145" value="" style="endArrow=none;html=1;rounded=0;fontSize=16;strokeWidth=6;" parent="028M3EtKcu_b-tOw9vi7-143" edge="1">
          <mxGeometry width="50" height="50" relative="1" as="geometry">
            <mxPoint y="10" as="sourcePoint" />
            <mxPoint x="30" y="10" as="targetPoint" />
          </mxGeometry>
        </mxCell>
        <mxCell id="028M3EtKcu_b-tOw9vi7-146" value="&lt;font size=&quot;5&quot;&gt;&lt;b&gt;GEMM &amp;nbsp;- combine&amp;nbsp;&lt;/b&gt;&lt;/font&gt;" style="text;html=1;strokeColor=none;fillColor=none;align=center;verticalAlign=middle;whiteSpace=wrap;rounded=0;" parent="1" vertex="1">
          <mxGeometry x="1646" y="497" width="321" height="30" as="geometry" />
        </mxCell>
        <mxCell id="028M3EtKcu_b-tOw9vi7-147" value="&lt;font size=&quot;5&quot;&gt;&lt;b&gt;GEMM &amp;nbsp;- offline&lt;/b&gt;&lt;/font&gt;" style="text;html=1;strokeColor=none;fillColor=none;align=center;verticalAlign=middle;whiteSpace=wrap;rounded=0;" parent="1" vertex="1">
          <mxGeometry x="1690" y="120" width="220" height="30" as="geometry" />
        </mxCell>
        <mxCell id="028M3EtKcu_b-tOw9vi7-148" value="" style="endArrow=classic;html=1;rounded=1;strokeWidth=6;fontSize=20;" parent="1" edge="1">
          <mxGeometry width="50" height="50" relative="1" as="geometry">
            <mxPoint x="930" y="410" as="sourcePoint" />
            <mxPoint x="250" y="550" as="targetPoint" />
            <Array as="points">
              <mxPoint x="930" y="500" />
              <mxPoint x="250" y="500" />
            </Array>
          </mxGeometry>
        </mxCell>
        <mxCell id="f4edF6H-629D5PfsEql4-1" value="" style="shape=link;html=1;rounded=0;strokeWidth=4;entryX=0.908;entryY=0.998;entryDx=0;entryDy=0;entryPerimeter=0;" edge="1" parent="1" target="f4edF6H-629D5PfsEql4-3">
          <mxGeometry width="100" relative="1" as="geometry">
            <mxPoint x="1336.5" y="492" as="sourcePoint" />
            <mxPoint x="2287.5" y="492" as="targetPoint" />
          </mxGeometry>
        </mxCell>
        <mxCell id="f4edF6H-629D5PfsEql4-2" value="&lt;div style=&quot;text-align: center;&quot;&gt;&lt;b&gt;&lt;font style=&quot;font-size: 16px;&quot;&gt;onchip&lt;/font&gt;&lt;/b&gt;&lt;/div&gt;" style="text;whiteSpace=wrap;html=1;" vertex="1" parent="1">
          <mxGeometry x="2152.0017647058826" y="504.00411764705876" width="74" height="36" as="geometry" />
        </mxCell>
        <mxCell id="f4edF6H-629D5PfsEql4-3" value="&lt;div style=&quot;text-align: center;&quot;&gt;&lt;b&gt;&lt;font style=&quot;font-size: 16px;&quot;&gt;offchip&lt;/font&gt;&lt;/b&gt;&lt;/div&gt;" style="text;whiteSpace=wrap;html=1;" vertex="1" parent="1">
          <mxGeometry x="2152.0017647058826" y="456.0041176470588" width="74" height="36" as="geometry" />
        </mxCell>
      </root>
    </mxGraphModel>
  </diagram>
</mxfile>
